<svg width="30" height="30" viewBox="-10 0 490 490.66667"  
xmlns="http://www.w3.org/2000/svg"><g fill="#6AC4DB">
<path fill="#6AC4DB" d="m363 192c0 17.8125-48.703125 42.667969-128 42.667969s-128-24.855469-128-42.667969v-29.910156c27.882812 19.585937 78.933594 29.910156 128 29.910156s100.117188-10.324219 128-29.910156zm0 0"/>
<path fill="#6AC4DB" d="m363 128c0 17.8125-48.703125 42.667969-128 42.667969s-128-24.855469-128-42.667969v-29.910156c27.882812 19.585937 78.933594 29.910156 128 29.910156s100.117188-10.324219 128-29.910156zm0 0"/>
<path fill="#6AC4DB" d="m363 64c0-23.5625-57.308594-42.667969-128-42.667969s-128 19.105469-128 42.667969 57.308594 42.667969 128 42.667969 128-19.105469 128-42.667969zm0 0"/>
<path fill="#6AC4DB" d="m235 298.667969c-75.433594 0-128-22.488281-128-42.667969v-29.910156c27.882812 19.585937 78.933594 29.910156 128 29.910156s100.117188-10.324219 128-29.910156v29.910156c0 20.179688-52.566406 42.667969-128 42.667969zm0 0"/></g>
<path fill="#1F55D0" d="m235 128c-72.40625 0-149.332031-22.441406-149.332031-64s76.925781-64 149.332031-64 149.332031 22.441406 149.332031 64-76.925781 64-149.332031 64zm0-106.667969c-79.296875 0-128 24.855469-128 42.667969s48.703125 42.667969 128 42.667969 128-24.855469 128-42.667969-48.703125-42.667969-128-42.667969zm0 0"/>
<path fill="#1F55D0" d="m235 192c-72.40625 0-149.332031-22.441406-149.332031-64 0-5.886719 4.777343-10.667969 10.664062-10.667969 5.890625 0 10.667969 4.78125 10.667969 10.667969 0 17.8125 48.703125 42.667969 128 42.667969s128-24.855469 128-42.667969c0-5.886719 4.777344-10.667969 10.667969-10.667969 5.886719 0 10.664062 4.78125 10.664062 10.667969 0 41.558594-76.925781 64-149.332031 64zm0 0"/>
<path fill="#1F55D0" d="m235 256c-72.40625 0-149.332031-22.441406-149.332031-64 0-5.886719 4.777343-10.667969 10.664062-10.667969 5.890625 0 10.667969 4.78125 10.667969 10.667969 0 17.8125 48.703125 42.667969 128 42.667969s128-24.855469 128-42.667969c0-5.886719 4.777344-10.667969 10.667969-10.667969 5.886719 0 10.664062 4.78125 10.664062 10.667969 0 41.558594-76.925781 64-149.332031 64zm0 0"/>
<path fill="#1F55D0" d="m235 320c-74.21875 0-149.332031-21.972656-149.332031-64v-192c0-5.886719 4.777343-10.667969 10.664062-10.667969 5.890625 0 10.667969 4.78125 10.667969 10.667969v192c0 20.179688 52.566406 42.667969 128 42.667969s128-22.488281 128-42.667969v-192c0-5.886719 4.777344-10.667969 10.667969-10.667969 5.886719 0 10.664062 4.78125 10.664062 10.667969v192c0 42.027344-75.113281 64-149.332031 64zm0 0"/>
</svg>