<?xml version="1.0" encoding="UTF-8"?>
<svg width="30" height="30" viewBox="0 0 50 50" version="1.1" xmlns="http://www.w3.org/2000/svg" xmlns:xlink="http://www.w3.org/1999/xlink">
    <!-- Generator: Sketch 50 (54983) - http://www.bohemiancoding.com/sketch -->
    <title>Tech/Python</title>
    <desc>Created with Sketch.</desc>
    <defs>
        <linearGradient x1="10.7067193%" y1="80.1656005%" x2="82.6943402%" y2="0%" id="linearGradient-1">
            <stop stop-color="#6AC4DB" offset="0%"></stop>
            <stop stop-color="#6AC4DB" offset="100%"></stop>
        </linearGradient>
        <linearGradient x1="-17.8153842%" y1="50%" x2="100%" y2="50%" id="linearGradient-2">
            <stop stop-color="#418EEA" offset="0%"></stop>
            <stop stop-color="#418EEA" offset="100%"></stop>
        </linearGradient>
    </defs>
    <g id="Tech/Python" stroke="none" stroke-width="1" fill="none" fill-rule="evenodd">
        <path d="M26.9567169,2.56643943e-07 C32.4795644,2.5664361e-07 36.9567169,4.47715276 36.9567169,10.0000003 L36.9567169,18.4782611 C36.9567169,22.0801182 34.0368348,25.0000003 30.4349777,25.0000003 L19.5654125,25.0000003 C15.9635555,25.0000003 13.0436734,27.9198823 13.0436734,31.5217394 L13.0436734,37.0476193 L10.0001951,37.0476193 C4.47734763,37.0476193 0.00019512566,32.5704668 0.00019512566,27.0476193 L0.00019512566,23 C0.00019512566,17.4771525 4.47734763,13 10.0001951,13 L23.7362931,13 L14.6337328,11.3043386 C13.6867088,11.1279231 13,10.301478 13,9.33816249 L13,8.00578967 C13,3.58751167 16.6253954,2.5664667e-07 21.0436734,2.56646403e-07 L26.9567169,2.56643943e-07 Z M18.5,8 C19.3284271,8 20,7.32842712 20,6.5 C20,5.67157288 19.3284271,5 18.5,5 C17.6715729,5 17,5.67157288 17,6.5 C17,7.32842712 17.6715729,8 18.5,8 Z" id="Combined-Shape" fill="url(#linearGradient-1)"></path>
        <path d="M23,50.047619 C17.4771525,50.047619 13,45.5704665 13,40.047619 L13,31.5693582 C13,27.9675011 15.9198821,25.047619 19.5217391,25.047619 L30.3913043,25.047619 C33.9931614,25.047619 36.9130435,22.127737 36.9130435,18.5258799 L36.9130435,13 L39.9565217,13 C45.4793692,13 49.9565217,17.4771525 49.9565217,23 L49.9565217,27.0476193 C49.9565217,32.5704668 45.4793692,37.0476193 39.9565217,37.0476193 L26.2204238,37.0476193 L35.322984,38.7432807 C36.270008,38.9196962 36.9567169,39.7461413 36.9567169,40.7094568 L36.9567169,42.0418296 C36.9567169,46.4601076 33.3313215,50.047619 28.9130435,50.047619 L23,50.047619 Z M31.5,45 C32.3284271,45 33,44.3284271 33,43.5 C33,42.6715729 32.3284271,42 31.5,42 C30.6715729,42 30,42.6715729 30,43.5 C30,44.3284271 30.6715729,45 31.5,45 Z" id="Combined-Shape" fill="url(#linearGradient-2)"></path>
    </g>
</svg>