<svg height="100pt" viewBox="0 0 64 64" width="100pt" xmlns="http://www.w3.org/2000/svg">
<g id="Analytics-Graph-Browser-Statistics-Online"><path d="m61 11v46a4 4 0 0 1 -4 4h-46a4 4 0 0 1 -4-4v-46z" fill="#6AC4DB"/><rect fill="#418EEA" height="22" rx="2" width="46" x="11" y="35"/><path d="m25 18v10a1 1 0 0 1 -1 1h-3v4l-5-4h-9v-12h17a1 1 0 0 1 1 1z" fill="#418EEA"/><path d="m22 15h-18a1 1 0 0 0 -1 1v10a1 1 0 0 0 1 1h10l5 4v-4h3a1 1 0 0 0 1-1v-10a1 1 0 0 0 -1-1z" fill="#418EEA"/><path d="m61 7v4h-54v-4a4 4 0 0 1 4-4h46a4 4 0 0 1 4 4z" fill="#418EEA"/><path d="m57 2h-46a5 5 0 0 0 -5 5v5h54v45a3.009 3.009 0 0 1 -3 3h-46a3.009 3.009 0 0 1 -3-3v-27h-2v27a5 5 0 0 0 5 5h46a5 5 0 0 0 5-5v-50a5 5 0 0 0 -5-5zm3 8h-52v-3a3.009 3.009 0 0 1 3-3h46a3.009 3.009 0 0 1 3 3z"/><path d="m12 6h2v2h-2z"/><path d="m16 6h2v2h-2z"/><path d="m20 6h2v2h-2z"/><path d="m10 37v18a3 3 0 0 0 3 3h42a3 3 0 0 0 3-3v-18a3 3 0 0 0 -3-3h-42a3 3 0 0 0 -3 3zm46 0v18a1 1 0 0 1 -1 1h-42a1 1 0 0 1 -1-1v-18a1 1 0 0 1 1-1h42a1 1 0 0 1 1 1z"/><path d="m17 54h35v-2h-34v-5.773l4.37 3.549a1 1 0 0 0 1.43-.176l2.344-3.125 3.275 2.339a1 1 0 0 0 .824.156l8-2a.962.962 0 0 0 .232-.09l2.775-1.494 2.932 4.187a1 1 0 0 0 1.374.259l6-4-1.11-1.664-5.186 3.457-2.236-3.194 8.451-4.551-.948-1.76-8.658 4.661-3.049-4.354a1 1 0 0 0 -1.444-.208l-4.5 3.6-3.429-1.719a1 1 0 0 0 -1.247.3l-2.484 3.311-2.135-1.525-1.162 1.628 2.1 1.5-1.692 2.256-4.827-3.919v-5.651h-2v15a1 1 0 0 0 1 1zm12.3-11.732 3.253 1.632a1 1 0 0 0 1.072-.114l4.167-3.334 2.3 3.289-2.456 1.319-7.43 1.858-2.862-2.044z"/><path d="m6 18h14v2h-14z"/><path d="m6 22h14v2h-14z"/><path d="m18.375 31.781a1 1 0 0 0 1.625-.781v-3h2a2 2 0 0 0 2-2v-10a2 2 0 0 0 -2-2h-18a2 2 0 0 0 -2 2v10a2 2 0 0 0 2 2h9.649zm-14.375-15.781h18v10h-3a1 1 0 0 0 -1 1v1.919l-3.375-2.7a1 1 0 0 0 -.625-.219h-10z"/><path d="m28 14h12v2h-12z"/><path d="m28 18h12v2h-12z"/><path d="m28 22h12v2h-12z"/><path d="m28 26h12v2h-12z"/><path d="m43 14h12v2h-12z"/><path d="m43 18h12v2h-12z"/><path d="m43 22h12v2h-12z"/><path d="m43 26h12v2h-12z"/></g></svg>