<?xml version="1.0" encoding="UTF-8"?>
<svg width="48px" height="48px" viewBox="0 0 48 48" version="1.1" xmlns="http://www.w3.org/2000/svg" xmlns:xlink="http://www.w3.org/1999/xlink">
    <!-- Generator: Sketch 50 (54983) - http://www.bohemiancoding.com/sketch -->
    <title>Branding_Upd</title>
    <desc>Created with Sketch.</desc>
    <defs>
        <linearGradient x1="100%" y1="37.8025224%" x2="0%" y2="37.8025234%" id="linearGradient-1">
            <stop stop-color="#428EEA" offset="0%"></stop>
            <stop stop-color="#1F55D0" offset="100%"></stop>
        </linearGradient>
        <linearGradient x1="-17.8153842%" y1="50%" x2="100%" y2="50%" id="linearGradient-2">
            <stop stop-color="#5CE6FF" offset="0%"></stop>
            <stop stop-color="#2FC8FF" offset="100%"></stop>
        </linearGradient>
    </defs>
    <g id="Branding_Upd" stroke="none" stroke-width="1" fill="none" fill-rule="evenodd">
        <path d="M44,5.90909091 C41,5.90909091 38.676,9.2025 40.804,12.1519091 C41.874,13.6354091 41.616,14.5286364 40.894,15.5704091 C39.364,17.7731818 37.15,19.5909091 34,19.5909091 C28.956,19.5909091 26.292,15.5195909 25.738,12.0698182 C25.546,10.8697273 25.438,9.97063636 26.61,8.85654545 C27.602,7.91640909 28.262,6.60686364 27.9,5.05104545 C27.508,3.376 25.974,2 24,2 C21.792,2 20,3.75127273 20,5.90909091 C20,7.09159091 20.586,8.09427273 21.39,8.85654545 C22.562,9.97063636 22.452,10.8697273 22.262,12.0698182 C21.706,15.5176364 19.042,19.5909091 14,19.5909091 C10.85,19.5909091 8.636,17.7731818 7.106,15.5684545 C6.382,14.5286364 6.124,13.6354091 7.196,12.1519091 C9.324,9.2025 7,5.90909091 4,5.90909091 C1.792,5.90909091 0,7.66036364 0,9.81818182 C0,11.3759545 0.928,12.7402273 2.288,13.352 C3.938,14.0927727 4,15.9261364 4,17.5953182 L4,33 L44,33 L44,17.5953182 C44,15.9261364 44.062,14.0927727 45.712,13.352 C47.072,12.7402273 48,11.3759545 48,9.81818182 C48,7.66036364 46.206,5.90909091 44,5.90909091 Z" id="Shape" fill="url(#linearGradient-1)" fill-rule="nonzero"></path>
        <path d="M47,42 L47,42 C47,43.6568542 45.6568542,45 44,45 L4,45 C2.34314575,45 1,43.6568542 1,42 L1,42 C1,40.3431458 2.34314575,39 4,39 L44,39 C45.6568542,39 47,40.3431458 47,42 Z" id="Path" fill="url(#linearGradient-1)"></path>
        <polygon id="Path" fill="url(#linearGradient-2)" points="44 33 44 39 4 39 4 33"></polygon>
    </g>
</svg>