<svg width="30" height="30" viewBox="0 0 512 512" xmlns="http://www.w3.org/2000/svg" xmlns:xlink="http://www.w3.org/1999/xlink"><linearGradient id="a" gradientTransform="matrix(1 0 0 -1 0 -10886)" gradientUnits="userSpaceOnUse" x1="0" x2="512" y1="-11142" y2="-11142"><stop offset="0" stop-color="#00f1ff"/><stop offset=".231" stop-color="#00d8ff"/><stop offset=".5138" stop-color="#00c0ff"/><stop offset=".7773" stop-color="#00b2ff"/><stop offset="1" stop-color="#00adff"/></linearGradient><path d="m512 256c0 141.386719-114.613281 256-256 256s-256-114.613281-256-256 114.613281-256 256-256 256 114.613281 256 256zm0 0" fill="url(#a)"/><path d="m256 357.378906c-11.703125 0-22.707031-4.558594-30.980469-12.835937l-149.617187-149.300781c-5.863282-5.851563-5.871094-15.351563-.019532-21.214844 5.851563-5.863282 15.351563-5.875 21.214844-.019532l149.625 149.3125c2.621094 2.621094 6.089844 4.058594 9.777344 4.058594s7.15625-1.4375 9.765625-4.046875l149.640625-149.324219c5.863281-5.855468 15.359375-5.84375 21.210938.019532 5.855468 5.863281 5.84375 15.363281-.019532 21.214844l-149.628906 149.3125c-8.261719 8.265624-19.265625 12.824218-30.96875 12.824218zm0 0" fill="#fff"/></svg>