<svg height="100pt" viewBox="-36 0 511 512" width="100pt" xmlns="http://www.w3.org/2000/svg"><path d="m321.363281 504.5h-237.496093c-9.386719 0-17-7.609375-17-17v-440.023438c0-9.390624 7.613281-17 17-17h237.496093c9.390625 0 17 7.609376 17 17v440.023438c0 9.390625-7.609375 17-17 17zm0 0" fill="#6AC4DB"/><path d="m321.054688 30.476562h-6.40625v428.917969c0 9.5625-7.75 17.3125-17.308594 17.3125h-230.472656v10.480469c0 9.5625 7.75 17.3125 17.3125 17.3125h236.875c9.558593 0 17.308593-7.75 17.308593-17.3125v-439.402344c0-9.558594-7.75-17.308594-17.308593-17.308594zm0 0" fill="#6AC4DB"/><path d="m295.296875 439.746094h-185.363281c-5.523438 0-10-4.476563-10-10v-357.203125c0-5.523438 4.476562-10 10-10h185.363281c5.523437 0 10 4.476562 10 10v357.203125c0 5.523437-4.476563 10-10 10zm0 0" fill="#6AC4DB"/><path d="m295.113281 62.542969h-12.519531v319.152343c0 5.625-4.5625 10.183594-10.183594 10.183594h-172.476562v37.6875c0 5.621094 4.558594 10.179688 10.183594 10.179688h184.996093c5.625 0 10.183594-4.558594 10.183594-10.179688v-356.839844c0-5.625-4.558594-10.183593-10.183594-10.183593zm0 0" fill="#6AC4DB"/><path d="m215.050781 471.605469c0 6.867187-5.566406 12.433593-12.433593 12.433593-6.867188 0-12.433594-5.566406-12.433594-12.433593 0-6.867188 5.566406-12.433594 12.433594-12.433594 6.867187 0 12.433593 5.566406 12.433593 12.433594zm0 0" fill="#418EEA"/><path d="m395.054688 241.867188h-88.03125c-19.882813 0-36-16.117188-36-36v-88.03125c0-19.882813 16.117187-36 36-36h88.03125c19.882812 0 36 16.117187 36 36v88.03125c0 19.882812-16.117188 36-36 36zm0 0" fill="#418EEA"/><path d="m400.664062 82.382812c3.550782 5.644532 5.613282 12.320313 5.613282 19.480469v97.914063c0 14.0625-11.398438 25.457031-25.457032 25.457031h-97.917968c-2.136719 0-4.230469-.195313-6.269532-.542969 6.484376 10.316406 17.964844 17.175782 31.046876 17.175782h86.714843c20.246094 0 36.660157-16.414063 36.660157-36.660157v-86.714843c0-18.105469-13.132813-33.136719-30.390626-36.109376zm0 0" fill="#418EEA"/><g fill="#418EEA"><path d="m247.503906 418.542969h-88.03125c-23.988281 0-43.5-19.515625-43.5-43.5v-88.03125c0-23.988281 19.511719-43.5 43.5-43.5h88.03125c23.984375 0 43.5 19.511719 43.5 43.5v88.03125c0 23.984375-19.515625 43.5-43.5 43.5zm-88.03125-160.03125c-15.714844 0-28.5 12.785156-28.5 28.5v88.03125c0 15.714843 12.785156 28.5 28.5 28.5h88.03125c15.714844 0 28.5-12.785157 28.5-28.5v-88.03125c0-15.714844-12.785156-28.5-28.5-28.5zm0 0"/><path d="m158.726562 383.269531c-1.917968 0-3.835937-.730469-5.296874-2.191406-2.933594-2.925781-2.9375-7.675781-.011719-10.605469l113.277343-113.457031c2.925782-2.929687 7.675782-2.933594 10.605469-.007813 2.933594 2.925782 2.9375 7.675782.007813 10.605469l-113.273438 113.457031c-1.464844 1.464844-3.386718 2.199219-5.308594 2.199219zm0 0"/><path d="m272.105469 407.128906c-1.921875 0-3.839844-.730468-5.304688-2.199218l-137.140625-137.316407c-2.925781-2.933593-2.921875-7.679687.007813-10.605469 2.929687-2.929687 7.679687-2.925781 10.605469.003907l137.140624 137.316406c2.925782 2.933594 2.921876 7.683594-.007812 10.609375-1.464844 1.460938-3.382812 2.191406-5.300781 2.191406zm0 0"/><path d="m179.910156 157.960938h-171.910156c-4.144531 0-7.5-3.355469-7.5-7.5 0-4.140626 3.355469-7.5 7.5-7.5h171.910156c4.144532 0 7.5 3.359374 7.5 7.5 0 4.144531-3.355468 7.5-7.5 7.5zm0 0"/><path d="m209.101562 191.277344h-85.628906c-4.144531 0-7.5-3.355469-7.5-7.5 0-4.140625 3.355469-7.5 7.5-7.5h85.628906c4.144532 0 7.5 3.359375 7.5 7.5 0 4.144531-3.355468 7.5-7.5 7.5zm0 0"/><path d="m209.101562 125.335938h-201.101562c-4.144531 0-7.5-3.359376-7.5-7.5 0-4.144532 3.355469-7.5 7.5-7.5h201.105469c4.140625 0 7.5 3.355468 7.5 7.5 0 4.140624-3.359375 7.5-7.503907 7.5zm0 0"/><path d="m209.101562 223.90625h-85.628906c-4.144531 0-7.5-3.359375-7.5-7.5s3.355469-7.5 7.5-7.5h85.628906c4.144532 0 7.5 3.359375 7.5 7.5s-3.355468 7.5-7.5 7.5zm0 0"/></g><path d="m387.894531 167.53125c0 20.355469-16.5 36.855469-36.855469 36.855469-20.355468 0-36.855468-16.5-36.855468-36.855469 0-20.351562 16.5-36.851562 36.855468-36.851562 20.355469 0 36.855469 16.5 36.855469 36.851562zm0 0" fill="#418EEA"/><path d="m355.679688 167.53125h-88.03125c-19.882813 0-36-16.117188-36-36v-88.03125c0-19.882812 16.117187-36 36-36h88.03125c19.882812 0 36 16.117188 36 36v88.03125c0 19.882812-16.117188 36-36 36zm0 0" fill="#418EEA"/><path d="m361.292969 8.046875c3.550781 5.644531 5.609375 12.320313 5.609375 19.480469v97.914062c0 14.0625-11.398438 25.457032-25.457032 25.457032h-97.917968c-2.136719 0-4.230469-.195313-6.269532-.542969 6.488282 10.316406 17.964844 17.175781 31.050782 17.175781h86.714844c20.246093 0 36.65625-16.414062 36.65625-36.660156v-86.710938c0-18.109375-13.128907-33.140625-30.386719-36.113281zm0 0" fill="#418EEA"/><path d="m341.246094 109.652344c-4.140625 0-7.5-3.359375-7.5-7.5v-54.257813h-41.5625v54.257813c0 4.140625-3.355469 7.5-7.5 7.5-4.140625 0-7.5-3.359375-7.5-7.5v-61.757813c0-4.140625 3.359375-7.5 7.5-7.5h56.5625c4.144531 0 7.5 3.359375 7.5 7.5v61.757813c0 4.140625-3.355469 7.5-7.5 7.5zm0 0" fill="#00a2ff"/><path d="m341.246094 68.242188h-56.5625c-4.140625 0-7.5-3.359376-7.5-7.5 0-4.144532 3.359375-7.5 7.5-7.5h56.5625c4.144531 0 7.5 3.355468 7.5 7.5 0 4.140624-3.355469 7.5-7.5 7.5zm0 0" fill="#00a2ff"/><path d="m292.441406 103.996094c0 8.589844-6.960937 15.550781-15.550781 15.550781s-15.550781-6.960937-15.550781-15.550781 6.960937-15.550782 15.550781-15.550782 15.550781 6.960938 15.550781 15.550782zm0 0" fill="#00a2ff"/><path d="m349.003906 104.082031c0 8.585938-6.964844 15.550781-15.554687 15.550781-8.585938 0-15.550781-6.964843-15.550781-15.550781 0-8.589843 6.964843-15.550781 15.550781-15.550781 8.589843 0 15.554687 6.960938 15.554687 15.550781zm0 0" fill="#00a2ff"/><path d="m202.617188 491.539062c-10.992188 0-19.933594-8.941406-19.933594-19.933593 0-10.992188 8.941406-19.933594 19.933594-19.933594 10.992187 0 19.933593 8.941406 19.933593 19.933594 0 10.988281-8.941406 19.933593-19.933593 19.933593zm0-24.867187c-2.722657 0-4.933594 2.210937-4.933594 4.933594 0 2.71875 2.210937 4.933593 4.933594 4.933593 2.71875 0 4.933593-2.214843 4.933593-4.933593 0-2.722657-2.214843-4.933594-4.933593-4.933594zm0 0"/><path d="m247.503906 243.511719h-88.03125c-23.988281 0-43.5 19.511719-43.5 43.5v88.03125c0 23.984375 19.511719 43.5 43.5 43.5h88.03125c23.984375 0 43.5-19.515625 43.5-43.5v-88.03125c0-23.988281-19.515625-43.5-43.5-43.5zm-33.40625 87.417969 58.074219-58.167969c2.429687 4.195312 3.832031 9.058593 3.832031 14.25v88.03125c0 5.132812-1.371094 9.949219-3.757812 14.113281zm33.40625-72.417969c5.089844 0 9.871094 1.347656 14.011719 3.695312l-58.019531 58.109375-58.035156-58.109375c4.140624-2.347656 8.921874-3.695312 14.011718-3.695312zm-88.03125 145.03125c-15.714844 0-28.5-12.785157-28.5-28.5v-88.03125c0-5.191407 1.398438-10.054688 3.832032-14.25l58.09375 58.167969-39.480469 39.542968c-2.925781 2.929688-2.921875 7.679688.011719 10.605469 1.460937 1.460937 3.378906 2.191406 5.296874 2.191406 1.921876 0 3.84375-.734375 5.308594-2.199219l39.460938-39.523437 58.148437 58.222656c-4.167969 2.394531-8.996093 3.773438-14.140625 3.773438zm0 0"/><path d="m209.101562 191.277344h-85.628906c-4.144531 0-7.5-3.355469-7.5-7.5 0-4.140625 3.355469-7.5 7.5-7.5h85.628906c4.144532 0 7.5 3.359375 7.5 7.5 0 4.144531-3.355468 7.5-7.5 7.5zm0 0"/><path d="m209.101562 223.90625h-85.628906c-4.144531 0-7.5-3.359375-7.5-7.5s3.355469-7.5 7.5-7.5h85.628906c4.144532 0 7.5 3.359375 7.5 7.5s-3.355468 7.5-7.5 7.5zm0 0"/><path d="m348.746094 86.855469v-46.460938c0-4.140625-3.355469-7.5-7.5-7.5h-56.5625c-4.140625 0-7.5 3.359375-7.5 7.5v40.558594c-.097656 0-.195313-.007813-.292969-.007813-12.710937 0-23.050781 10.339844-23.050781 23.050782 0 12.710937 10.339844 23.050781 23.050781 23.050781s23.050781-10.339844 23.050781-23.050781c0-6.84375-3.003906-13-7.757812-17.226563v-18.527343h41.5625v12.796874c-.097656-.003906-.195313-.007812-.296875-.007812-12.707031 0-23.050781 10.339844-23.050781 23.050781 0 12.707031 10.34375 23.050781 23.050781 23.050781 12.710937 0 23.054687-10.34375 23.054687-23.050781 0-6.847656-3.003906-13-7.757812-17.226562zm-71.855469 25.191406c-4.441406 0-8.050781-3.613281-8.050781-8.050781s3.609375-8.050782 8.050781-8.050782c4.4375 0 8.050781 3.613282 8.050781 8.050782 0 4.441406-3.613281 8.050781-8.050781 8.050781zm15.292969-58.804687v-5.347657h41.5625v5.347657zm41.265625 58.890624c-4.4375 0-8.050781-3.613281-8.050781-8.050781 0-4.441406 3.613281-8.050781 8.050781-8.050781 4.441406 0 8.054687 3.609375 8.054687 8.050781 0 4.4375-3.613281 8.050781-8.054687 8.050781zm0 0"/><path d="m399.179688 74.550781v-31.050781c0-23.984375-19.515626-43.5-43.5-43.5h-88.03125c-23.988282 0-43.5 19.515625-43.5 43.5v11.542969h-114.167969c-9.675781 0-17.546875 7.871093-17.546875 17.542969v37.75h-18.066406v-62.785157c0-5.28125 4.296874-9.574219 9.574218-9.574219h113.597656c4.140626 0 7.5-3.359374 7.5-7.5 0-4.144531-3.359374-7.5-7.5-7.5h-113.597656c-13.550781 0-24.574218 11.023438-24.574218 24.574219v62.785157h-51.367188c-4.144531 0-7.5 3.355468-7.5 7.5 0 4.140624 3.355469 7.5 7.5 7.5h51.367188v17.625h-51.367188c-4.144531 0-7.5 3.359374-7.5 7.5 0 4.144531 3.355469 7.5 7.5 7.5h51.367188v329.464843c0 13.550781 11.023437 24.574219 24.574218 24.574219h237.347656c13.550782 0 24.574219-11.023438 24.574219-24.574219v-238.058593h49.03125c24.074219 0 43.660157-19.585938 43.660157-43.660157v-87.710937c0-22.628906-17.304688-41.285156-39.375-43.445313zm-18.785157 92.980469c0 16.1875-13.167969 29.355469-29.355469 29.355469-13.59375 0-25.054687-9.289063-28.378906-21.855469h33.019532c9.171874 0 17.683593-2.859375 24.707031-7.726562 0 .078124.007812.152343.007812.226562zm-141.246093-124.03125c0-15.714844 12.785156-28.5 28.5-28.5h88.03125c15.714843 0 28.5 12.785156 28.5 28.5v88.03125c0 5.992188-1.863282 11.554688-5.03125 16.148438-.316407.355468-.59375.738281-.835938 1.144531-5.210938 6.808593-13.417969 11.207031-22.632812 11.207031h-88.03125c-15.714844 0-28.5-12.785156-28.5-28.5zm-164.78125 81.835938h18.066406v17.625h-18.066406zm256.496093 362.089843c0 5.277344-4.292969 9.574219-9.574219 9.574219h-237.347656c-5.277344 0-9.574218-4.296875-9.574218-9.574219v-329.464843h18.066406v271.742187c0 9.675781 7.871094 17.542969 17.546875 17.542969h185.273437c9.671875 0 17.542969-7.871094 17.542969-17.542969v-96.203125c0-4.140625-3.355469-7.5-7.5-7.5s-7.5 3.359375-7.5 7.5v96.203125c0 1.402344-1.140625 2.542969-2.542969 2.542969h-185.273437c-1.402344 0-2.546875-1.140625-2.546875-2.542969v-271.742187h72.476562c4.144532 0 7.5-3.355469 7.5-7.5 0-4.140626-3.355468-7.5-7.5-7.5h-72.476562v-17.625h101.667968c4.144532 0 7.5-3.359376 7.5-7.5 0-4.144532-3.355468-7.5-7.5-7.5h-101.667968v-37.75c0-1.402344 1.144531-2.542969 2.546875-2.542969h114.167969v61.488281c0 22.597656 17.316406 41.214844 39.375 43.300781v30.875c0 20.851563 14.699218 38.328125 34.273437 42.632813v50.160156c0 4.140625 3.355469 7.5 7.5 7.5s7.5-3.359375 7.5-7.5v-49.132812h18.066406zm92.691407-281.71875c0 15.804688-12.855469 28.660157-28.660157 28.660157h-87.710937c-15.804688 0-28.660156-12.855469-28.660156-28.660157v-30.675781h28.808593c3.574219 20.898438 21.808594 36.855469 43.707031 36.855469 24.457032 0 44.355469-19.898438 44.355469-44.355469 0-4.789062-.757812-9.460938-2.246093-13.9375 3.828124-6.476562 6.03125-14.015625 6.03125-22.0625v-41.875c13.777343 2.074219 24.375 13.992188 24.375 28.339844zm0 0"/></svg>